# xmcd
#
# Track frame offsets:
#	150
#	14566
#	26705
#	40436
#	51364
#	65750
#	79064
#	90748
#	101095
#	112866
#	123335
#	135348
#	146052
#	160014
#	172938
#	184883
#	201762
#	212664
#	224613
#	235193
#	250760
#
# Disc length: 3528 seconds
#
# Revision: 1
# Processed by: cddbd v1.5.1PL0 Copyright (c) Steve Scherf et al.
# Submitted via: audiograbber 1.83.01
#
DISCID=2f0dc615
DTITLE=Orion - Gold
DYEAR=1900
DGENRE=
TTITLE0=I'm Not Trying To Be Just Like Elvis
TTITLE1=Games You've Been Playing
TTITLE2=Tupelo Woman
TTITLE3=Just Out Of Reach
TTITLE4=My Baby's Out Of Sight
TTITLE5=Movi'n On
TTITLE6=The Closer He Gets
TTITLE7=It's You Again
TTITLE8=There You Go
TTITLE9=Here Comes That Wonderful Feeling
TTITLE10=I Use Here To Remind Me Of You
TTITLE11=Changing
TTITLE12=Remember Bethlehem
TTITLE13=Silent Night
TTITLE14=I Make The Livin'
TTITLE15=Thank God For America
TTITLE16=Strangers T'l We Touch
TTITLE17=Listen To Daddy
TTITLE18=Honky Tonk Heaven
TTITLE19=Morning Noon And Night
TTITLE20=He's Gone But Not Forgotten
EXTD=
EXTT0=
EXTT1=
EXTT2=
EXTT3=
EXTT4=
EXTT5=
EXTT6=
EXTT7=
EXTT8=
EXTT9=
EXTT10=
EXTT11=
EXTT12=
EXTT13=
EXTT14=
EXTT15=
EXTT16=
EXTT17=
EXTT18=
EXTT19=
EXTT20=
PLAYORDER=
